<svg width="14" height="14" viewBox="0 0 14 14" fill="none" xmlns="http://www.w3.org/2000/svg">
<path d="M10.4989 13.5C9.66993 13.5 8.99789 12.8279 8.99789 11.9989C8.99789 11.1699 9.66993 10.4979 10.4989 10.4979C11.328 10.4979 12 11.1699 12 11.9989C12 12.8279 11.328 13.5 10.4989 13.5Z" stroke="#0441E7" stroke-linecap="round" stroke-linejoin="round"/>
<path d="M3.49894 13.5C2.66993 13.5 1.99788 12.8279 1.99788 11.9989C1.99788 11.1699 2.66993 10.4979 3.49894 10.4979C4.32795 10.4979 5 11.1699 5 11.9989C5 12.8279 4.32795 13.5 3.49894 13.5Z" stroke="#0441E7" stroke-linecap="round" stroke-linejoin="round"/>
<path d="M2 12H0.5V10C0.5 8.89543 1.39543 8 2.5 8H4.5C5.60457 8 6.5 8.89543 6.5 10V10.5C6.5 11.3284 7.17157 12 8 12H9H5" stroke="#0441E7" stroke-linecap="round" stroke-linejoin="round"/>
<path d="M12 12H12.5C13.0523 12 13.5119 11.5481 13.4079 11.0057C13.0767 9.27756 11.8659 8 10 8H9.5" stroke="#0441E7" stroke-linecap="round" stroke-linejoin="round"/>
<path d="M8 3.5H9.5V10.8785" stroke="#0441E7" stroke-linecap="round" stroke-linejoin="round"/>
<path d="M11.5 4.5H10.5C9.94772 4.5 9.5 4.94772 9.5 5.5C9.5 6.05228 9.94772 6.5 10.5 6.5H11.5V4.5Z" stroke="#0441E7" stroke-linecap="round" stroke-linejoin="round"/>
<path d="M1.5 8H4C4.55228 8 5 7.55228 5 7V4.5C5 3.94772 4.55228 3.5 4 3.5H1.5C0.947715 3.5 0.5 3.94772 0.5 4.5V7C0.5 7.55228 0.947715 8 1.5 8Z" stroke="#0441E7" stroke-linecap="round"/>
</svg>
