<?xml version="1.0" encoding="UTF-8"?>
<svg id="RobotDQHQ" xmlns="http://www.w3.org/2000/svg" viewBox="0 0 500 500">
  <g id="head">
    <g>
      <g>
        <g>
          <path d="m177,238.98c-2.31,2.76-7.59,4.5-13.21,4.37-5.22-.12-9.9-1.82-12.03-4.37-3.65-5.33-8.17-14.08-7.26-24.97.67-8.04,4.09-14.62,7.26-19.23,1.53-3.2,7.13-5.39,13.22-5.24,5.67.14,10.61,2.27,12.02,5.24v44.2Z" fill="#00ffbc" stroke="#5b00f8" stroke-miterlimit="10" stroke-width="2"/>
          <path d="m323,193.91c2.31-2.76,7.59-4.5,13.21-4.37,5.22.12,9.9,1.82,12.03,4.37,3.65,5.33,8.17,14.08,7.26,24.97-.67,8.04-4.09,14.62-7.26,19.23-1.53,3.2-7.13,5.39-13.22,5.24-5.67-.14-10.61-2.27-12.02-5.24v-44.2Z" fill="#00ffbc" stroke="#5b00f8" stroke-miterlimit="10" stroke-width="2"/>
        </g>
        <path d="m326.92,256.37c-14.6,18.11-41.06,24.64-46.91,26.06-12.54,3.03-24.38,3.12-29.64,3.13-5.33.01-17.5-.02-30.37-3.13-6.11-1.47-32.36-7.98-46.93-26.06-27.48-34.1-12.91-87.11,20.69-111.3,21.47-15.46,46.15-15.82,56.24-15.41,10.09-.41,34.77-.06,56.26,15.41,33.58,24.19,48.14,77.21,20.67,111.3Z" fill="#fff" stroke="#5b00f8" stroke-miterlimit="10" stroke-width="2"/>
      </g>
      <g>
        <path d="m231.86,283.59c-12.25-1.63-21.88-4.79-28.5-7.46-5.16-2.08-11.36-4.63-18.41-9.84-3.05-2.25-8.04-6-12.86-12.46-3.51-4.72-5.67-9.19-6.98-12.46,9.66,8.41,19.31,16.83,28.97,25.24,12.59,5.66,25.19,11.32,37.78,16.99Z" fill="#cafffe" stroke-width="0"/>
        <path d="m268.06,283.59c12.25-1.63,21.88-4.79,28.5-7.46,5.16-2.08,11.36-4.63,18.41-9.84,3.05-2.25,8.04-6,12.86-12.46,3.51-4.72,5.67-9.19,6.98-12.46-9.66,8.41-19.31,16.83-28.97,25.24-12.59,5.66-25.19,11.32-37.78,16.99Z" fill="#cafffe" stroke-width="0"/>
      </g>
    </g>
    <path d="m305.96,254.02c-9.78,6.5-20.04,6.59-23.13,6.62-16.25.15-18.36-8.8-32.83-8.8s-16.58,8.95-32.83,8.8c-3.09-.03-13.35-.12-23.13-6.62-15.11-10.04-22.55-26.19-18.77-39.56,3.3-11.73,14.21-17.59,17.38-19.29,6.38-3.41,16.82-2.62,37.38-1.68,8.29.38,11.67.81,19.96.81s11.67-.43,19.96-.81c20.56-.95,31-1.73,37.38,1.68,3.17,1.7,14.08,7.55,17.38,19.29,3.79,13.37-3.66,29.53-18.77,39.56Z" fill="#c2fbff" stroke="#5b00f8" stroke-miterlimit="10" stroke-width="2"/>
    <path d="m262.5,166.82v2.19c0,1.02-.82,1.84-1.84,1.84h-5.89c-1.02,0-1.84.82-1.84,1.84v5.87c0,1.02-.82,1.84-1.84,1.84h-2.17c-1.02,0-1.84-.82-1.84-1.84v-5.87c0-1.02-.82-1.84-1.84-1.84h-5.89c-1.02,0-1.84-.82-1.84-1.84v-2.19c0-1.02.82-1.84,1.84-1.84h5.89c1.02,0,1.84-.82,1.84-1.84v-5.89c0-1.02.82-1.84,1.84-1.84h2.17c1.02,0,1.84.82,1.84,1.84v5.89c0,1.02.82,1.84,1.84,1.84h5.89c1.02,0,1.84.82,1.84,1.84Z" fill="#ff0074" stroke-width="0"/>
  </g>
  <path id="right-eye" d="m292.13,246.2c10.11,0,18.3-9.02,18.3-20.14s-8.19-20.14-18.3-20.14c-10.11,0-18.3,9.02-18.3,20.14,0,11.12,8.19,20.14,18.3,20.14Z" fill="#00ffbc" stroke="#5cffe0" stroke-miterlimit="10" stroke-width=".25"/>
  <ellipse id="left-eye" cx="207.87" cy="226.06" rx="18.3" ry="20.14" fill="#00ffbc" stroke="#5cffe0" stroke-miterlimit="10" stroke-width=".25"/>
  <g id="body">
    <circle cx="250" cy="312.74" r="17.67" fill="#7fdef4" stroke="#5b00f8" stroke-miterlimit="10" stroke-width="2"/>
    <ellipse cx="250" cy="341.79" rx="33.06" ry="28.38" fill="#35d5ef" stroke="#5b00f8" stroke-miterlimit="10" stroke-width="2"/>
    <path d="m292.42,361.06h-36.9c-.45,0-.88-.17-1.21-.5l-3.1-3.1c-.67-.67-1.75-.67-2.42,0l-3.1,3.1c-.34.34-.76.5-1.21.5h-36.9c-1.16,0-1.98-1.14-1.62-2.24l13.93-41.91-2.59-16.36c-.09-.63.37-1.25,1.04-1.34l8.38-1.29s0-.02.02-.02l1.14-.17c.07-.02.13-.02.21-.02h5.45c.45,0,.88.17,1.19.48l14.06,14.06c.67.67,1.75.67,2.42,0l14.06-14.06c.32-.32.75-.48,1.19-.48h5.45c.07,0,.13,0,.21.02l1.14.17s.02.02.02.02l8.38,1.29c.67.09,1.14.71,1.04,1.34l-2.59,16.36,13.93,41.91c.35,1.1-.47,2.24-1.62,2.24Z" fill="#fff" stroke="#5b00f8" stroke-miterlimit="10" stroke-width="2"/>
    <g>
      <path d="m237.51,348.51c-.04.42-.36.75-.78.79-2.56.24-5.71.31-9.28-.08-3.35-.37-6.24-1.05-8.59-1.78-.4-.12-.64-.51-.6-.93l.24-2.28c.06-.56.6-.91,1.14-.75,2.28.71,5.1,1.39,8.37,1.74,3.37.36,6.35.28,8.78.04.56-.05,1.02.41.96.96l-.24,2.28Z" fill="#00ffbc" stroke-width="0"/>
      <path d="m262.49,348.51c.04.42.36.75.78.79,2.56.24,5.71.31,9.28-.08,3.35-.37,6.24-1.05,8.59-1.78.4-.12.64-.51.6-.93l-.24-2.28c-.06-.56-.6-.91-1.14-.75-2.28.71-5.1,1.39-8.37,1.74-3.37.36-6.35.28-8.78.04-.56-.05-1.02.41-.96.96l.24,2.28Z" fill="#00ffbc" stroke-width="0"/>
    </g>
    <g>
      <path d="m260.87,318.57c.14.77,0,1.41-.42,1.94-.44.54-1.16.89-2.14,1.02-.63.08-1.12.12-1.48.1-.16-.79-.3-1.59-.45-2.39-.12-.61-.29-1.46-.5-2.53.48-.12.98-.21,1.5-.28.94-.12,1.69-.01,2.29.33.64.36,1.04.97,1.2,1.82Zm-1.32.61c-.06-.32-.2-.53-.44-.65-.2-.1-.44-.12-.71-.07.09.67.19,1.35.28,2.02.29-.06.52-.18.68-.37.2-.23.26-.54.2-.93Z" fill="#ae00ff" stroke-width="0"/>
      <path d="m265.56,317.52c.12.52.14,1,.04,1.46-.11.49-.33.87-.68,1.13.1.06.24.14.43.24.24.1.46.17.63.21-.07.1-.18.24-.34.43-.09.1-.23.21-.4.34-.19-.09-.36-.18-.49-.28-.16-.12-.28-.23-.36-.33.04-.05.1-.16.17-.32-.2.13-.41.22-.63.26-.7.14-1.33-.03-1.88-.5-.51-.44-.84-1.04-.98-1.79-.15-.81-.05-1.47.29-2,.32-.49.8-.8,1.45-.92.63-.12,1.19,0,1.68.34.52.36.88.94,1.07,1.73Zm-1.47.9c-.13-.59-.4-.84-.81-.76-.22.04-.37.16-.44.36-.06.17-.06.39,0,.65.06.24.17.45.31.63.17.21.34.29.52.26.17-.03.3-.18.38-.44.07-.24.08-.47.03-.7Z" fill="#00ffce" stroke-width="0"/>
      <path d="m270.08,313.99c.11.52.3,1.35.58,2.51.14.55.34,1.31.59,2.29-.56.16-1.13.31-1.69.45-.11-.34-.22-.69-.33-1.03-.03.02-.11.07-.21.15-.13.1-.21.17-.27.22-.09-.11-.19-.23-.28-.34-.06-.07-.15-.18-.27-.31.13.52.26,1.04.39,1.56-.63.15-1.26.3-1.89.45-.23-.76-.46-1.52-.68-2.28-.17-.6-.42-1.42-.74-2.49.75-.16,1.5-.33,2.25-.52.2,1,.41,1.99.62,2.99.16-.02.32-.06.46-.1.09-.03.22-.07.37-.12-.33-.96-.65-1.92-.95-2.89.69-.17,1.37-.35,2.06-.54Z" fill="#ae00ff" stroke-width="0"/>
      <path d="m275.25,314.87c.18.5.24.97.2,1.44-.05.5-.23.89-.54,1.18.11.05.25.11.44.19.25.07.46.12.64.14-.05.1-.15.25-.28.46-.08.1-.2.23-.36.38-.2-.07-.36-.14-.51-.23-.17-.1-.29-.2-.38-.29.03-.06.08-.17.13-.33-.18.15-.38.26-.59.32-.67.21-1.3.11-1.88-.3-.55-.38-.93-.94-1.14-1.66-.23-.78-.21-1.44.07-2,.26-.52.7-.87,1.31-1.06.6-.18,1.15-.13,1.67.16.54.3.95.83,1.22,1.59Zm-1.33,1.04c-.19-.56-.48-.78-.86-.66-.21.06-.34.2-.39.4-.04.18-.02.39.07.64.09.23.21.43.37.59.19.19.36.25.53.2.17-.05.27-.21.32-.47.05-.24.03-.47-.04-.69Z" fill="#00ffce" stroke-width="0"/>
    </g>
    <path d="m249.95,314.48c.02.49.03.97.05,1.46-6.29-2.46-12.57-4.92-18.86-7.38.81-1.2,1.62-2.39,2.44-3.59-5.02-1.61-10.04-3.23-15.07-4.84,2.87-.51,5.74-1.02,8.61-1.53,3.47.11,6.93.23,10.4.34,4.14,5.18,8.29,10.36,12.43,15.54Z" fill="#cafffe" stroke-width="0"/>
    <path d="m250.05,314.48c-.02.49-.03.97-.05,1.46,6.29-2.46,12.57-4.92,18.86-7.38-.81-1.2-1.62-2.39-2.44-3.59,5.04-1.61,10.09-3.22,15.13-4.83-3.19-.49-6.39-.98-9.58-1.47-3.16.09-6.32.18-9.49.28-4.14,5.18-8.29,10.36-12.43,15.54Z" fill="#cafffe" stroke-width="0"/>
    <g>
      <path d="m248.2,314.01l-12.61-5.17c-.71-.29-1.01-1.13-.66-1.8l.84-1.6c.4-.77-.05-1.7-.89-1.88l-4.02-.81c-.93-.19-1.35-1.28-.79-2.05,1.59-2.15,3.18-4.3,4.77-6.45.52-.71,1.58-.7,2.1.01l12.8,17.78c.76,1.06-.34,2.46-1.55,1.96Z" fill="#fff" stroke="#5b00f8" stroke-miterlimit="10" stroke-width="2"/>
      <path d="m251.8,314.01l12.61-5.17c.71-.29,1.01-1.13.66-1.8l-.84-1.6c-.4-.77.05-1.7.89-1.88l4.02-.81c.93-.19,1.35-1.28.79-2.05-1.59-2.15-3.18-4.3-4.77-6.45-.52-.71-1.58-.7-2.1.01l-12.8,17.78c-.76,1.06.34,2.46,1.55,1.96Z" fill="#fff" stroke="#5b00f8" stroke-miterlimit="10" stroke-width="2"/>
    </g>
    <line x1="249.95" y1="313.55" x2="249.95" y2="356.97" fill="none" stroke="#5b00f8" stroke-miterlimit="10" stroke-width="2"/>
  </g>
  <g id="left-hand">
    <path d="m188.26,325c-3.38-2.93-3.76-8.04-.83-11.43,2.91-3.36,8.16-1.78,11.43-.83,1.81.53,7.21,2.11,7.45,5.13.25,3.1-5.07,5.57-6.62,6.29-2.99,1.39-8.03,3.77-11.43.83Z" fill="#fff" stroke="#5b00f8" stroke-miterlimit="10" stroke-width="2"/>
    <path d="m187.6,319c-.27-3.75,3.61-6.26,4.03-5.82.34.35-1.6,2.5-1.33,5.76.27,3.15,2.4,4.87,2.13,5.24-.35.48-4.56-1.42-4.84-5.18Z" fill="#cafffe" stroke-width="0"/>
  </g>
  <g id="right-hand">
    <path d="m310.7,314.31c2.13,3.93.67,8.85-3.26,10.98-3.91,2.12-8.27-1.22-10.98-3.26-1.5-1.13-6-4.52-5.16-7.44.86-2.99,6.71-3.42,8.42-3.54,3.29-.24,8.84-.69,10.98,3.26Z" fill="#fff" stroke="#5b00f8" stroke-miterlimit="10" stroke-width="2"/>
    <path d="m309.19,320.15c-1.07,3.61-5.59,4.58-5.83,4.02-.2-.45,2.38-1.78,3.28-4.92.86-3.04-.52-5.4-.13-5.66.5-.33,3.76,2.94,2.69,6.55Z" fill="#cafffe" stroke-width="0"/>
  </g>
</svg>